<svg width="192" height="51" viewBox="0 0 192 51" fill="none" xmlns="http://www.w3.org/2000/svg">
<path fill-rule="evenodd" clip-rule="evenodd" d="M43.3236 6.77517C39.5751 3.44329 35.179 1.27377 30.4884 0.44073C28.6829 0.111415 25.6801 -0.0823139 24.1101 0.0339618C20.9896 0.266414 16.8878 1.37054 14.3365 2.66849C6.89838 6.42654 1.77611 13.1678 0.323842 21.1101C-0.107947 23.4927 -0.107947 27.5608 0.323842 29.9434C0.716304 32.0162 1.79568 35.3093 2.62003 36.9365C5.48534 42.5155 10.9609 47.339 16.9075 49.4892C24.7381 52.3368 33.9621 51.0971 40.8115 46.2929C42.4404 45.1694 44.9525 42.8061 46.0123 41.4308C46.4833 40.8108 46.9347 40.2297 47.0328 40.1135C48.9757 37.5951 50.8401 32.9654 51.37 29.3429C52.6261 20.9163 49.5645 12.2961 43.3236 6.77517ZM157.717 14.6843C157.214 14.3116 156.529 13.8042 155.837 13.3033C154.679 12.4317 153.698 11.7343 153.659 11.7343C153.404 11.7343 153.345 12.8191 153.345 18.9017C153.345 23.9964 153.404 25.8561 153.581 26.0304C153.855 26.3017 154.443 26.3404 154.62 26.0692C154.679 25.9723 154.738 23.3184 154.738 20.1608C154.738 17.0227 154.797 14.4463 154.895 14.4463C154.993 14.4463 158.84 17.2358 163.432 20.6451C168.044 24.0546 171.852 26.844 171.911 26.844C171.95 26.844 171.989 23.5703 171.989 19.5603V12.2961L171.361 12.3542L170.714 12.4123L170.616 18.2818L170.517 24.132L164.728 19.8703C161.548 17.507 158.722 15.4148 158.447 15.2212C158.336 15.1426 158.079 14.9523 157.734 14.6971L157.729 14.6927L157.721 14.6869L157.718 14.6848L157.717 14.6843ZM103.202 13.3809V12.7997V12.2186L94.2719 12.1798C89.3652 12.1411 85.2238 12.1992 85.0864 12.2961C84.9299 12.3735 84.8516 12.6641 84.8908 12.916L84.95 13.3809L89.1685 13.4778L93.3881 13.5746L93.4473 19.8315L93.4864 26.0885L94.0362 26.0304L94.5659 25.9723L94.6251 19.7348L94.6642 13.4778L98.943 13.439L103.202 13.3809ZM122.827 13.3809V12.7997V12.2186L113.564 12.1605L104.281 12.1218V19.076C104.281 22.9116 104.339 26.0692 104.438 26.1079C104.516 26.1467 108.677 26.1272 113.701 26.0692L122.827 25.9723V25.488V25.0037L114.29 24.9068C109.599 24.8488 105.733 24.7712 105.714 24.7519C105.675 24.7325 105.655 23.6284 105.655 22.2917V19.8703H114.055C118.666 19.8703 122.552 19.7928 122.689 19.6959C122.847 19.6185 122.925 19.3279 122.886 19.076L122.827 18.6111L114.25 18.5531L105.655 18.5143V15.996V13.4778L114.25 13.439L122.827 13.3809ZM191.89 13.1678C191.968 12.9934 191.968 12.6835 191.909 12.4898C191.792 12.1411 191.379 12.1218 182.567 12.1218H173.363L173.402 19.1149L173.461 26.0885L182.509 26.1079C187.474 26.1272 191.654 26.0692 191.772 25.9916C192.086 25.8173 192.067 25.1587 191.772 24.9844C191.634 24.9068 187.749 24.8488 183.137 24.8875L174.737 24.9263V22.408V19.8703L183.195 19.8315C190.751 19.7735 191.693 19.7348 191.87 19.4635C191.987 19.2892 192.007 18.9986 191.948 18.8243C191.831 18.5531 191.006 18.5143 183.274 18.5143H174.737V15.996V13.4778H183.254C190.967 13.4778 191.772 13.439 191.89 13.1678ZM63.4598 16.5965C63.4598 14.5819 63.4005 12.7997 63.3417 12.6254C63.2632 12.4317 62.9884 12.3154 62.6548 12.3154H62.0856V19.1923C62.0856 25.3912 62.1249 26.0885 62.3996 26.2048C63.1651 26.4954 63.3613 26.0304 63.4202 23.822L63.499 21.7105L67.3453 19.8315L71.2118 17.9719L75.4504 22.1367C79.8074 26.4178 80.3572 26.8053 80.4946 25.6817C80.5338 25.275 79.8857 24.5388 76.5499 21.2651L72.526 17.3327L76.4907 15.3568C80.0432 13.5746 80.4354 13.3228 80.4354 12.8966C80.4354 12.5479 80.3181 12.3929 80.0231 12.3542C79.7683 12.3154 76.255 13.9427 71.5258 16.2672L63.4598 20.2577V16.5965ZM83.3799 25.8367C83.4381 25.5849 83.4582 22.466 83.4381 18.9017L83.3799 12.4123L82.8301 12.3542C82.5161 12.3154 82.2603 12.393 82.2021 12.548C82.1429 12.6835 82.1239 15.8023 82.1429 19.4829L82.2021 26.1661L82.7318 26.2241C83.1632 26.2822 83.2816 26.1854 83.3799 25.8367ZM131.953 18.9211C131.953 15.628 131.894 12.7997 131.835 12.6254C131.757 12.4317 131.482 12.3154 131.149 12.3154H130.579V19.2892V26.2629L139.764 26.2241L148.929 26.1661V25.5849V25.0037L140.45 24.9457L131.953 24.9068V18.9211ZM151.794 26.0304C151.991 25.7399 152.03 13.0903 151.853 12.6254C151.775 12.4317 151.5 12.3154 151.166 12.3154H150.597L150.636 19.231L150.695 26.1661L151.166 26.2241C151.422 26.2629 151.716 26.1854 151.794 26.0304ZM64.3036 37.0334C63.4399 38.1569 63.4202 38.1763 63.3221 37.9245C63.2632 37.7889 63.0276 37.4402 62.7922 37.1884C62.1249 36.4135 62.0268 36.8978 62.6744 37.7501C63.0473 38.2538 63.2632 38.7768 63.2632 39.1836C63.2632 39.5323 63.3613 39.8229 63.4598 39.8229C63.5772 39.8229 63.6555 39.5323 63.6555 39.1836C63.6555 38.7962 63.8912 38.2732 64.2444 37.8083C64.5584 37.4014 64.7741 36.9752 64.6958 36.8591C64.6366 36.7428 64.4601 36.8203 64.3036 37.0334ZM70.5246 38.4669C70.5246 37.9632 70.1714 37.2852 69.7591 36.9752C69.2685 36.6072 68.4248 36.6847 67.8951 37.1497C66.7956 38.1376 67.4236 39.8229 68.8953 39.8229C69.6608 39.8229 70.5246 39.1061 70.5246 38.4669ZM74.5475 39.4354C74.0178 39.4354 73.782 39.0093 73.7038 37.9051C73.5864 36.3554 73.2724 36.3941 73.2724 37.9439C73.2724 39.358 73.6055 39.8229 74.5876 39.8229C75.4313 39.8229 75.7253 39.3773 75.7253 38.0989C75.7253 36.7235 75.3922 36.6653 75.3521 38.0407C75.333 39.0093 75.0973 39.4354 74.5475 39.4354ZM80.612 38.4862C81.0043 38.0601 81.0043 37.692 80.612 37.1497C80.3763 36.8203 80.1214 36.7235 79.4352 36.7235H78.5714V38.2732C78.5714 39.1836 78.6497 39.8229 78.7671 39.8229C78.8855 39.8229 78.9637 39.6098 78.9637 39.3386C78.9637 38.68 79.5917 38.6994 80.1024 39.3773C80.5538 39.9972 80.8869 39.881 80.5338 39.2417C80.3572 38.9124 80.3763 38.7575 80.612 38.4862ZM87.4029 39.4354V38.0795C87.4029 37.3046 87.3246 36.7235 87.2062 36.7235C87.0888 36.7235 87.0106 37.3627 87.0106 38.2732V39.8229H87.9917C88.5415 39.8229 88.9729 39.726 88.9729 39.6292C88.9729 39.5129 88.6198 39.4354 88.1874 39.4354H87.4029ZM91.8973 39.7842C92.1521 40.1909 92.3086 39.5904 92.3086 38.1763C92.3086 37.0334 92.1521 36.5685 91.8381 36.8591C91.6616 37.0334 91.7007 39.4936 91.8973 39.7842ZM97.2545 38.8543C97.1763 38.8543 96.7248 38.37 96.2734 37.7889C95.8029 37.2077 95.3514 36.7235 95.233 36.7235C95.1347 36.7235 95.0565 37.4208 95.0565 38.2732C95.0565 39.1836 95.1347 39.8229 95.2531 39.8229C95.3705 39.8229 95.4497 39.3193 95.4497 38.6994L95.4688 37.5951L96.4891 38.7187C97.0589 39.3193 97.5686 39.8229 97.6669 39.8229C97.8826 39.8229 97.8434 36.7235 97.6077 36.7235C97.5104 36.7235 97.412 37.2077 97.412 37.7889C97.412 38.37 97.3529 38.8543 97.2545 38.8543ZM101.043 37.9632L100.984 37.3434C100.866 36.1036 100.552 36.7622 100.552 38.2732C100.552 39.1836 100.63 39.8229 100.748 39.8229C100.866 39.8229 100.944 39.4936 100.944 39.1061V38.3894L101.729 39.1449C102.691 40.0747 103.044 39.881 102.122 38.9511L101.455 38.2732L102.102 37.6146C102.946 36.7622 102.554 36.5103 101.69 37.3434L101.043 37.9632ZM110.855 37.1109C111.13 37.1109 111.346 37.0141 111.346 36.9172C111.346 36.8009 110.835 36.7235 110.188 36.7235C109.54 36.7235 108.952 36.8009 108.893 36.9172C108.834 37.0334 108.991 37.1109 109.265 37.1109C109.737 37.1109 109.757 37.169 109.815 38.37C109.854 39.0674 109.972 39.6292 110.071 39.6292C110.188 39.6292 110.286 39.0674 110.326 38.37C110.385 37.169 110.404 37.1109 110.855 37.1109ZM116.547 39.3386C117.195 38.7187 117.195 37.8857 116.528 37.2271C115.467 36.2004 113.897 36.8396 113.897 38.2925C113.897 39.6873 115.545 40.3459 116.547 39.3386ZM125.222 37.1109C125.496 37.1109 125.634 37.0334 125.575 36.9172C125.515 36.8009 124.927 36.7235 124.279 36.7235C123.631 36.7235 123.122 36.8009 123.122 36.9172C123.122 37.0141 123.337 37.1109 123.612 37.1109C124.083 37.1109 124.103 37.1497 124.103 38.4669C124.103 39.203 124.181 39.8229 124.279 39.8229C124.397 39.8229 124.534 39.203 124.613 38.4669C124.731 37.1884 124.77 37.1109 125.222 37.1109ZM128.897 37.9694C128.813 37.8777 128.813 37.7096 128.813 37.4014C128.813 36.8009 128.656 36.5685 128.401 36.8009C128.362 36.8396 128.342 37.5951 128.381 38.4862C128.42 39.5323 128.518 39.9972 128.636 39.8035C128.734 39.6485 128.813 39.2804 128.813 38.99C128.813 38.4669 128.852 38.4475 129.657 38.5056C130.441 38.5638 130.481 38.6025 130.599 39.2417C130.677 39.726 130.755 39.8229 130.854 39.6098C131.05 39.1643 130.913 36.8009 130.677 36.8785C130.579 36.8978 130.521 37.1884 130.54 37.4983C130.599 38.06 130.599 38.0795 129.716 38.0795C129.223 38.0795 129 38.0795 128.897 37.9694ZM135.093 37.1109C135.525 37.1109 135.878 37.0141 135.878 36.9172C135.878 36.8009 135.387 36.7235 134.798 36.7235H133.719V38.2732V39.8229H134.798C135.387 39.8229 135.878 39.726 135.878 39.6292C135.878 39.5129 135.525 39.4354 135.112 39.4354C134.347 39.4354 134.072 39.203 134.269 38.6994C134.308 38.5831 134.564 38.4669 134.818 38.4669C135.073 38.4669 135.289 38.37 135.289 38.2732C135.289 38.1569 135.073 38.0795 134.798 38.0795C134.406 38.0795 134.308 37.9826 134.308 37.5951C134.308 37.1497 134.386 37.1109 135.093 37.1109ZM143.944 37.2465C144.69 37.537 144.965 37.3821 144.434 36.9946C144.042 36.7235 143.277 36.6653 142.786 36.8591C142.453 36.9752 141.962 37.9632 141.962 38.4669C141.962 39.0674 142.825 39.8229 143.512 39.8229C144.298 39.8229 144.709 39.6485 144.709 39.2999C144.709 39.0867 144.612 39.048 144.376 39.1449C143.532 39.4742 143.297 39.4742 142.845 39.048C142.236 38.4862 142.236 38.2345 142.825 37.5564C143.277 37.0528 143.336 37.0334 143.944 37.2465ZM148.026 39.0867C148.026 38.9124 148.007 38.3313 147.987 37.8083C147.968 37.2465 147.849 36.8203 147.712 36.7816C147.516 36.7041 147.457 37.0915 147.457 38.2538V39.8229H148.438C148.988 39.8229 149.419 39.726 149.419 39.6292C149.419 39.5129 149.105 39.4354 148.733 39.4354C148.222 39.4354 148.046 39.358 148.026 39.0867ZM155.131 38.9124C155.386 38.215 155.032 37.2271 154.404 36.9365C153.267 36.4329 152.226 36.9365 152.05 38.1182C151.951 38.6994 152.011 38.9124 152.422 39.3193C153.267 40.1522 154.738 39.9391 155.131 38.9124ZM158.938 39.2804C158.487 39.0867 158.447 38.9511 158.447 37.8857C158.447 36.8591 158.31 36.5297 158.035 36.8009C157.977 36.8591 157.996 37.479 158.055 38.1763C158.172 39.5517 158.369 39.8229 159.272 39.8229C160.096 39.8229 160.41 39.358 160.41 38.1569C160.41 37.5758 160.41 37.0528 160.43 36.9752C160.43 36.8978 160.352 36.8009 160.233 36.7622C160.096 36.7235 160.017 37.1109 160.017 37.847C160.017 39.2224 159.703 39.6292 158.938 39.2804ZM165.905 38.3119C165.905 37.479 165.768 37.2465 165.179 36.9365C164.943 36.8203 164.434 36.7235 164.06 36.7235H163.354V38.2732V39.8229H164.198C165.316 39.8229 165.905 39.2999 165.905 38.3119ZM19.989 1.15621C20.5385 1.00121 21.5983 0.807483 22.3441 0.710619C23.1094 0.613756 24.0711 0.555715 24.5028 0.575029L25.2878 0.594441L25.4448 1.65984C25.5234 2.24102 25.8571 3.51946 26.1711 4.5074C26.5047 5.47604 26.7598 6.34771 26.7598 6.44457C26.7598 6.52212 26.2888 6.15398 25.7393 5.61162C23.5216 3.51946 22.0496 2.57034 19.4002 1.56298C19.0862 1.4468 19.1843 1.36925 19.989 1.15621ZM25.7792 0.751129C25.7792 1.70035 26.5643 4.47046 27.3296 6.23322L27.7614 7.24058L28.7427 7.22116C29.4492 7.20185 29.8614 7.31802 30.3127 7.64734L30.9211 8.09293L31.8239 7.70548C32.0171 7.62486 32.289 7.50809 32.5961 7.37626L32.5977 7.37547C33.1014 7.15926 33.6991 6.90254 34.1986 6.69822C35.0032 6.34949 36.6321 5.82645 37.7901 5.53586C38.9676 5.24527 39.9685 4.97409 40.0078 4.91595C40.2433 4.6835 36.8873 2.86261 34.7677 2.04907C32.8248 1.31289 29.9201 0.692988 27.8399 0.5574C26.0343 0.460536 25.7792 0.479951 25.7792 0.751129ZM12.2364 8.03578C13.0018 5.16881 14.3168 3.19291 16.0045 2.43742C17.2016 1.89497 19.0857 1.93379 20.4792 2.49556C22.0492 3.13478 23.7174 4.31645 25.5426 6.0792L27.1518 7.62892L26.7594 8.50069C26.4649 9.13991 26.3865 9.60481 26.4846 10.1279C26.5827 10.8252 26.5435 10.9028 25.4837 11.8132C24.3846 12.743 24.3454 12.7624 23.8352 12.4718C23.0697 12.0263 21.9118 11.8713 21.1661 12.1232C20.7932 12.2393 20.1847 12.6849 19.8119 13.1111L19.7738 13.1514C19.4821 13.4607 19.3023 13.6513 19.0806 13.7477C18.7247 13.9022 18.2608 13.8142 17.0529 13.585L17.0518 13.5848L17.0508 13.5846L17.0054 13.576C16.1615 13.421 15.141 13.2467 14.7484 13.1886C14.1009 13.0917 13.9634 12.9561 13.6298 12.22C13.3551 11.6001 13.041 11.2514 12.5504 11.0189C11.7065 10.6315 11.6477 10.2053 12.2364 8.03578ZM11.6281 4.72133C9.4497 6.13546 7.44786 7.99508 5.52457 10.3777C4.68065 11.4045 3.40495 13.4772 3.40495 13.7872C3.40495 13.9421 3.99375 13.8646 5.21056 13.5547C6.21148 13.3029 7.31052 13.0898 7.68341 13.0898C8.488 13.0898 9.09646 12.7798 9.09646 12.373C9.09646 11.9663 10.4114 10.7652 10.8627 10.7652C11.2356 10.7652 11.4515 10.3971 11.4515 9.73852C11.4515 8.90557 12.2169 6.3485 12.8057 5.14752C13.1393 4.46947 13.414 3.88839 13.414 3.84957C13.414 3.65584 12.9038 3.9077 11.6281 4.72133ZM33.2751 7.56929C34.4919 7.00753 36.3171 6.38762 37.8478 6.00017C39.2413 5.65154 40.4974 5.36095 40.6347 5.34154C41.3216 5.32223 44.8935 8.78969 46.5617 11.0949C47.7981 12.7996 49.3681 15.8215 49.741 17.1775C49.9569 17.9911 49.9569 18.088 49.5643 18.4754C49.3289 18.7079 49.1326 19.0372 49.1326 19.2309C49.1326 19.7346 45.3056 19.444 42.4599 18.7272C38.5936 17.7393 34.2367 15.2404 31.4892 12.4509L30.6256 11.5598L30.9593 10.9012C31.136 10.5331 31.2733 9.83578 31.2733 9.37087V8.4991L33.2751 7.56929ZM27.5246 8.22852C25.7387 9.99137 28.3097 12.7033 30.233 11.0762C30.704 10.6693 30.7825 10.4563 30.7825 9.64264C30.7825 8.82911 30.6844 8.59666 30.233 8.17048C29.4479 7.45371 28.3097 7.47312 27.5246 8.22852ZM9.48852 13.1874C9.48852 12.3157 9.90065 11.5989 10.5482 11.3471C12.4716 10.5723 14.2771 12.7225 13.0211 14.3109C11.8239 15.8219 9.48852 15.0858 9.48852 13.1874ZM25.7002 12.1799L24.7385 13.0129L25.0917 13.9234C25.2684 14.4077 25.3862 15.0856 25.3468 15.4343C25.2487 16.0154 25.3076 16.0736 26.3478 16.5191C26.9562 16.7709 27.5842 17.0615 27.7412 17.139C27.8982 17.2165 28.6833 17.6233 29.4683 18.03C30.2533 18.4369 31.7448 19.3086 32.785 19.9866C33.8055 20.6646 34.7279 21.2263 34.826 21.2263C35.1597 21.2263 33.1775 17.0034 31.313 13.7878L30.1944 11.8893L29.3897 12.0056C28.8009 12.083 28.3693 12.0056 27.8197 11.7343C27.4076 11.5213 26.9758 11.347 26.8581 11.347C26.7403 11.347 26.2104 11.715 25.7002 12.1799ZM19.5174 15.9184C19.1446 14.5236 19.7922 13.187 21.166 12.5865C21.7548 12.3346 22.8145 12.3927 23.4622 12.7221C24.1883 13.1095 24.8556 14.2525 24.8556 15.1241C24.8556 18.2236 20.3613 18.9016 19.5174 15.9184ZM6.15169 13.7689C4.87598 14.0208 3.30593 14.5437 2.87424 14.8731C2.54057 15.1443 1.53965 17.8369 1.02941 19.8128C0.440618 22.1567 0.283613 27.1546 0.735065 29.6728C1.59854 34.6707 4.16951 39.6298 7.78063 43.2522C8.68343 44.182 8.87966 44.2789 9.62546 44.2789H10.4694V43.3491C10.4889 41.1214 11.1955 36.4529 11.9609 33.5859L12.3927 31.8812L11.6272 31.3582C10.7834 30.7577 10.0965 29.5567 9.93947 28.4137C9.80203 27.4645 10.5675 25.7018 11.3329 25.1787L11.4124 25.1227L11.5781 25.0065C12.1643 24.5959 12.4249 24.4134 12.5004 24.1741C12.5608 23.9829 12.5031 23.7553 12.3992 23.3458L12.3726 23.2408L12.3534 23.1641C12.0982 22.1567 11.6272 19.2704 11.2936 16.6746C11.1758 15.7254 11.0777 15.5124 10.7637 15.4543C10.273 15.3574 9.52734 14.6988 9.17401 14.0014C8.84043 13.4009 8.2713 13.3428 6.15169 13.7689ZM13.611 14.1375C13.611 14.0213 13.7091 13.8469 13.8072 13.75C14.0231 13.537 17.0848 13.8857 18.2819 14.2731C18.8118 14.4475 18.9099 14.5637 18.9099 15.0867C18.9099 15.4354 19.0865 16.0941 19.3024 16.559C19.5183 17.0239 19.6949 17.45 19.6949 17.5275C19.6949 17.6631 18.4389 19.4259 17.9287 20.007C17.8305 20.1426 17.7323 20.2976 17.7323 20.3751C17.7323 20.4526 17.5164 20.7819 17.2613 21.1112C17.0259 21.4406 16.4763 22.351 16.0642 23.1259C15.5539 24.1331 15.2399 24.5206 15.0437 24.4431C14.8867 24.385 14.3763 24.3268 13.925 24.3268H13.1007L12.7671 22.9127C12.2176 20.5301 12.0409 19.4452 11.8839 17.6049C11.7073 15.6097 11.7466 15.416 12.2176 15.416C12.5708 15.416 13.611 14.4668 13.611 14.1375ZM33.1179 16.1312C34.4133 18.7076 34.6684 19.2306 35.3946 21.0708C35.7478 21.9039 36.0618 22.3301 36.8468 22.9111C38.2403 23.9572 40.5365 26.1268 41.9299 27.7153L43.127 29.0713H44.5793L46.0512 29.0907L46.9148 27.7734C47.955 26.1656 49.6623 22.7174 49.839 21.8652C49.9175 21.4196 49.8587 21.1677 49.5642 20.8772C49.3483 20.6641 49.1521 20.3929 49.1129 20.2766C49.054 20.141 48.1904 19.9861 46.8756 19.8698C43.3429 19.5793 40.6149 18.8626 37.6515 17.3903C35.9637 16.5767 33.0003 14.6008 32.4507 13.9809C31.7442 13.1286 31.9797 13.9229 33.1179 16.1312ZM22.186 18.3205C22.9121 18.3205 24.3644 17.6038 24.7373 17.042C24.8943 16.7901 25.1494 16.5771 25.2672 16.5771C25.9737 16.5771 32.9604 20.5095 35.2566 22.2142C35.5314 22.4079 36.9444 26.747 37.5528 29.2266C38.22 31.958 38.7304 34.7475 38.7304 35.6773C38.7304 36.3359 38.6911 36.3746 35.0996 38.6217C33.0782 39.8809 25.9736 42.7479 24.9335 42.7091C24.6588 42.7091 24.2859 42.3992 23.913 41.8956C23.128 40.8301 22.1271 40.462 20.871 40.7913C20.0663 40.9851 19.9879 40.9657 19.6542 40.5589C19.1832 39.9584 16.6908 34.9993 16.0039 33.2946L15.4347 31.9192L16.2787 31.2219C17.3384 30.3308 17.829 29.3623 17.8094 28.103C17.7898 26.9602 17.3384 26.011 16.4357 25.1973L15.788 24.6162L16.3963 23.4539C16.9851 22.2916 19.1635 18.9985 19.8701 18.1848C20.2234 17.7588 20.2822 17.7588 20.9495 18.0299C21.3224 18.1848 21.8915 18.3205 22.186 18.3205ZM49.7605 18.9403C49.2501 19.444 49.7605 20.8388 50.4277 20.8388C50.6828 20.8388 50.7025 20.6838 50.6044 20.0057C50.4474 19.0178 50.1137 18.5916 49.7605 18.9403ZM47.1112 28.3539C48.2692 26.533 49.172 24.809 49.8981 23.0074C50.2513 22.1357 50.6242 21.419 50.7224 21.419C50.8205 21.419 50.8989 21.4771 50.8989 21.5546C50.8989 21.6114 50.9327 21.9486 50.9806 22.4249L50.9807 22.4264L50.9812 22.4318C51.0147 22.7657 51.0549 23.1674 51.0953 23.5886C51.3111 25.8551 51.0953 28.8189 50.4868 31.3177C50.0354 33.2162 48.9953 35.9863 48.3084 37.0904L47.8963 37.7491L47.3664 36.4125C47.072 35.6764 46.6402 34.7078 46.4047 34.2429L45.973 33.4099L46.3654 32.9256C46.9739 32.1701 47.0916 31.2209 46.6795 30.3298L46.3262 29.5743L47.1112 28.3539ZM36.3756 23.4153C36.3756 23.5508 36.5522 24.1901 36.7877 24.8294C37.4158 26.6116 38.4951 30.9895 38.8484 33.2366L38.8881 33.4877C39.1509 35.153 39.2268 35.6336 39.3937 35.6667C39.4613 35.6801 39.5441 35.6198 39.6603 35.5352C39.6827 35.5188 39.7064 35.5015 39.7315 35.4837C39.9671 35.3287 40.7129 34.7088 41.3998 34.1083C42.5969 33.0622 42.6362 33.0041 42.3614 32.5973C41.9492 32.0162 41.9885 30.7377 42.4399 30.0596L42.8128 29.4978L42.0081 28.5293C40.1437 26.3404 36.3756 22.9116 36.3756 23.4153ZM10.4114 28.2186C10.3917 26.7852 11.3141 25.4679 12.6682 24.9642C14.0813 24.4412 15.985 25.061 16.8289 26.3396C17.2999 27.0369 17.3588 27.2888 17.2999 28.3349C17.2214 29.6715 16.8486 30.3301 15.7691 31.0469C14.9252 31.628 14.0421 31.7636 13.0608 31.5118C11.4711 31.0856 10.431 29.7877 10.4114 28.2186ZM15.9654 29.4971C16.7897 28.1605 16.0831 26.3009 14.5916 25.8747C14.5263 25.8571 14.4668 25.8408 14.4122 25.8258C14.1301 25.7483 13.9747 25.7056 13.8224 25.7121C13.6379 25.7198 13.4566 25.799 13.0558 25.9742L12.8841 26.049C10.4898 27.1338 11.2749 30.582 13.9047 30.582C14.9056 30.582 15.4943 30.272 15.9654 29.4971ZM12.4926 26.9789C11.8646 27.6182 11.8252 27.7538 11.9235 28.4512C12.2375 30.3302 14.671 30.7758 15.6523 29.1292C16.3981 27.9088 15.3579 26.2622 13.8663 26.2622C13.3168 26.2622 13.0225 26.4171 12.4926 26.9789ZM44.422 33.2763C42.5379 33.2182 41.8315 31.0485 43.2837 29.8476C43.8136 29.402 44.0492 29.3438 44.6968 29.4214C47.1893 29.7507 46.9145 33.3538 44.422 33.2763ZM12.8254 32.171C12.2955 32.8296 11.0983 39.6677 11.0198 42.6315L10.961 44.375L13.6104 44.3363C15.0626 44.3168 16.7308 44.2588 17.3001 44.1813C18.2028 44.0651 18.3205 44.0069 18.3205 43.6002C18.3205 42.9415 18.6345 42.2248 19.1252 41.7405L19.5766 41.295L18.9289 40.2295C18.0851 38.7766 16.1421 34.7861 15.5533 33.2945L15.102 32.1129L14.0422 32.0354C13.4534 31.9967 12.9235 32.0547 12.8254 32.171ZM39.4967 36.3162L41.204 34.8634C42.3816 33.8561 43.0096 33.4492 43.2255 33.5461C43.4021 33.6236 44.0106 33.7011 44.5993 33.7205L45.6787 33.7592L46.2086 34.8634C46.503 35.4638 46.9348 36.5293 47.1702 37.2267L47.602 38.4858L47.0918 39.2026L47.0045 39.3254L46.8757 39.506L46.8749 39.507L46.8734 39.5091C46.6375 39.8396 46.3812 40.1989 46.2479 40.4036C45.4432 41.5465 43.8339 43.2706 42.4797 44.4135C40.8311 45.7889 38.9471 47.0868 38.7901 46.9318C38.7313 46.8736 38.849 46.1763 39.0453 45.4015C39.3004 44.3361 39.3985 43.0188 39.4378 40.1518L39.4967 36.3162ZM37.5539 37.6328C34.5315 39.6474 30.783 41.4296 27.0346 42.6306L24.8365 43.328L24.7187 44.1804C24.6402 44.6453 24.4047 45.2458 24.1888 45.4976C23.9926 45.7688 23.8159 46.0787 23.8159 46.2143C23.8159 46.5436 26.0925 48.8488 27.2897 49.7206L28.3298 50.4761L29.6448 50.2824C32.4512 49.8368 36.8277 48.3839 37.7305 47.6091C38.2211 47.1635 38.6725 45.3813 38.9473 42.7275C39.1632 40.5966 39.0454 36.916 38.7511 36.916C38.6922 36.916 38.1426 37.226 37.5539 37.6328ZM18.7132 43.756C18.7132 43.0005 19.2823 42.0125 19.9889 41.567C20.7543 41.0634 22.1476 41.0634 22.972 41.567C23.8747 42.0901 24.2673 42.9617 24.1691 44.124C23.9533 46.1775 21.6963 47.2041 19.93 46.0612C19.3609 45.6931 18.7132 44.4727 18.7132 43.756ZM16.8486 44.6655C16.3187 44.7623 14.7486 44.8399 13.3748 44.8399C11.4811 44.8544 11.015 44.858 10.9003 45.0581C10.8627 45.1234 10.8627 45.2097 10.8627 45.3241C10.8627 45.6728 11.1768 45.9827 12.1973 46.6608C14.8075 48.3848 18.0261 49.6439 21.2644 50.1864C23.1091 50.5157 27.0932 50.7287 27.2305 50.5157C27.2698 50.4381 26.3867 49.5083 25.2483 48.4624C23.325 46.6608 23.1877 46.5639 22.7167 46.777C21.2055 47.455 19.0662 46.467 18.4579 44.8011C18.4207 44.7065 18.3935 44.6375 18.3443 44.5916C18.2122 44.4681 17.9207 44.5103 16.8486 44.6655ZM10.1955 45.2463C10.0385 45.2463 9.84216 45.1494 9.78327 45.0525C9.72438 44.9363 9.84216 44.8588 10.0582 44.8588C10.2936 44.8588 10.4703 44.9363 10.4703 45.0525C10.4703 45.1494 10.3525 45.2463 10.1955 45.2463ZM68.1108 37.4599C67.7577 37.8473 67.6784 38.6027 67.9342 38.9902C68.0125 39.1257 68.3656 39.2807 68.6997 39.3582C69.1702 39.4551 69.406 39.3776 69.72 39.0677C70.2306 38.564 70.2306 38.2734 69.72 37.6148C69.2485 37.0337 68.5622 36.9562 68.1108 37.4599ZM79.4152 38.4678C79.0219 38.4678 78.9637 38.3709 78.9637 37.7704C78.9637 37.1118 78.9828 37.0924 79.6108 37.1505C80.1014 37.1893 80.2589 37.3054 80.298 37.6736C80.3763 38.1772 80.0622 38.4678 79.4152 38.4678ZM114.663 37.5185C114.113 38.0609 114.231 38.8552 114.917 39.2232C115.369 39.4751 115.506 39.4751 115.939 39.2426C116.684 38.8552 116.801 38.1771 116.233 37.5766C115.683 37.0149 115.212 36.9761 114.663 37.5185ZM152.716 38.9689C152.461 38.6008 152.539 37.8259 152.893 37.4579C153.305 36.993 153.835 37.0124 154.326 37.4967C154.875 38.039 154.836 38.7751 154.228 39.1626C153.737 39.4725 152.991 39.395 152.716 38.9689ZM163.746 38.2729C163.746 39.377 163.766 39.4352 164.237 39.4352C164.826 39.4352 165.513 38.8152 165.513 38.2729C165.513 37.7693 164.768 37.1106 164.198 37.1106C163.786 37.1106 163.746 37.1881 163.746 38.2729Z" fill="#F9FCFF"/>
</svg>
