<svg width="16" height="21" viewBox="0 0 16 21" fill="none" xmlns="http://www.w3.org/2000/svg">
<path d="M8 16.9961V10.9961M8 10.9961L5 12.9961M8 10.9961L11 12.9961M9 1.99696C8.90451 1.99609 8.79728 1.99609 8.67471 1.99609H4.2002C3.08009 1.99609 2.51962 1.99609 2.0918 2.21408C1.71547 2.40583 1.40973 2.71157 1.21799 3.08789C1 3.51571 1 4.07618 1 5.19629V16.7963C1 17.9164 1 18.4762 1.21799 18.904C1.40973 19.2803 1.71547 19.5866 2.0918 19.7783C2.51921 19.9961 3.079 19.9961 4.19694 19.9961L11.8031 19.9961C12.921 19.9961 13.48 19.9961 13.9074 19.7783C14.2837 19.5866 14.5905 19.2803 14.7822 18.904C15 18.4766 15 17.9176 15 16.7997V8.32178C15 8.19906 15 8.0917 14.9991 7.99609M9 1.99696C9.28564 1.99956 9.46634 2.00994 9.63884 2.05135C9.84291 2.10035 10.0379 2.18136 10.2168 2.29102C10.4186 2.41466 10.5918 2.58791 10.9375 2.93359L14.063 6.05908C14.4089 6.40498 14.5809 6.57745 14.7046 6.77929C14.8142 6.95823 14.8953 7.15335 14.9443 7.35742C14.9857 7.52985 14.9963 7.7106 14.9991 7.99609M9 1.99696V4.79609C9 5.9162 9 6.47586 9.21799 6.90368C9.40973 7.28001 9.71547 7.58657 10.0918 7.77832C10.5192 7.99609 11.079 7.99609 12.1969 7.99609H14.9991M14.9991 7.99609H15.0002" stroke="#262E37" stroke-width="2" stroke-linecap="round" stroke-linejoin="round"/>
</svg>
