<svg width="18" height="19" viewBox="0 0 18 19" fill="none" xmlns="http://www.w3.org/2000/svg">
<path d="M17 14.879V9.10798C17 8.55215 16.9995 8.27409 16.9346 8.01545C16.877 7.78624 16.7825 7.56934 16.6546 7.37333C16.5102 7.15215 16.3096 6.96874 15.9074 6.60272L11.1074 2.23381C10.3608 1.55425 9.98751 1.21465 9.56738 1.08541C9.19719 0.97153 8.80261 0.97153 8.43242 1.08541C8.01261 1.21455 7.63985 1.55384 6.89436 2.23237L2.09277 6.60272C1.69064 6.96874 1.49004 7.15215 1.3457 7.37333C1.21779 7.56934 1.12255 7.78624 1.06497 8.01545C1 8.27409 1 8.55215 1 9.10798V14.879C1 15.8484 1 16.3329 1.15224 16.7152C1.35523 17.225 1.74432 17.6305 2.23438 17.8416C2.60192 18 3.06786 18 3.99974 18C4.93163 18 5.39808 18 5.76562 17.8416C6.25568 17.6305 6.64467 17.2251 6.84766 16.7153C6.9999 16.333 7 15.8483 7 14.8789V13.8387C7 12.6897 7.89543 11.7583 9 11.7583C10.1046 11.7583 11 12.6897 11 13.8387V14.8789C11 15.8483 11 16.333 11.1522 16.7153C11.3552 17.2251 11.7443 17.6305 12.2344 17.8416C12.6019 18 13.0679 18 13.9997 18C14.9316 18 15.3981 18 15.7656 17.8416C16.2557 17.6305 16.6447 17.225 16.8477 16.7152C16.9999 16.3329 17 15.8484 17 14.879Z" stroke="#F8F8F8" stroke-width="2" stroke-linecap="round" stroke-linejoin="round"/>
</svg>
