<svg width="16" height="21" viewBox="0 0 16 21" fill="none" xmlns="http://www.w3.org/2000/svg">
<path d="M8 16.0039V13.0039M8 13.0039V10.0039M8 13.0039H5M8 13.0039H11M9 1.00478C8.90451 1.00391 8.79728 1.00391 8.67471 1.00391H4.2002C3.08009 1.00391 2.51962 1.00391 2.0918 1.22189C1.71547 1.41364 1.40973 1.71938 1.21799 2.0957C1 2.52353 1 3.084 1 4.2041V15.8041C1 16.9242 1 17.484 1.21799 17.9118C1.40973 18.2881 1.71547 18.5944 2.0918 18.7861C2.51921 19.0039 3.079 19.0039 4.19694 19.0039L11.8031 19.0039C12.921 19.0039 13.48 19.0039 13.9074 18.7861C14.2837 18.5944 14.5905 18.2881 14.7822 17.9118C15 17.4844 15 16.9254 15 15.8075V7.32959C15 7.20687 15 7.09951 14.9991 7.00391M9 1.00478C9.28564 1.00738 9.46634 1.01775 9.63884 1.05917C9.84291 1.10816 10.0379 1.18917 10.2168 1.29883C10.4186 1.42247 10.5918 1.59572 10.9375 1.94141L14.063 5.06689C14.4089 5.41279 14.5809 5.58527 14.7046 5.7871C14.8142 5.96604 14.8953 6.16116 14.9443 6.36523C14.9857 6.53766 14.9963 6.71841 14.9991 7.00391M9 1.00478V3.80391C9 4.92401 9 5.48367 9.21799 5.9115C9.40973 6.28782 9.71547 6.59439 10.0918 6.78613C10.5192 7.00391 11.079 7.00391 12.1969 7.00391H14.9991M14.9991 7.00391H15.0002" stroke="#262E37" stroke-width="2" stroke-linecap="round" stroke-linejoin="round"/>
</svg>
