<svg width="22" height="16" viewBox="0 0 22 16" fill="none" xmlns="http://www.w3.org/2000/svg">
<path d="M7.14279 17.3372L9.71418 19.8928L14.857 14.7817M12.2856 2.00502C12.1628 2.00391 12.0249 2.00391 11.8674 2.00391H6.11448C4.67436 2.00391 3.95377 2.00391 3.40372 2.28245C2.91988 2.52746 2.52679 2.91812 2.28026 3.39898C2 3.94564 2 4.6618 2 6.09304V20.9153C2 22.3465 2 23.0618 2.28027 23.6084C2.52679 24.0893 2.91988 24.4806 3.40372 24.7256C3.95324 25.0039 4.67297 25.0039 6.1103 25.0039L15.8895 25.0039C17.3268 25.0039 18.0455 25.0039 18.595 24.7256C19.0788 24.4806 19.4732 24.0893 19.7198 23.6084C19.9997 23.0623 19.9997 22.348 19.9997 20.9196V10.0867C19.9997 9.92991 19.9997 9.79274 19.9985 9.67057M12.2856 2.00502C12.6528 2.00834 12.8851 2.0216 13.1069 2.07452C13.3693 2.13712 13.6199 2.24063 13.85 2.38075C14.1094 2.53874 14.3322 2.76012 14.7766 3.20182L18.795 7.1955C19.2398 7.63748 19.4609 7.85787 19.6199 8.11576C19.7609 8.34442 19.8652 8.59373 19.9282 8.85449C19.9814 9.07482 19.9951 9.30578 19.9985 9.67057M12.2856 2.00502V5.58168C12.2856 7.01293 12.2856 7.72805 12.5658 8.27472C12.8124 8.75557 13.2055 9.1473 13.6893 9.39231C14.2388 9.67057 14.9585 9.67057 16.3958 9.67057H19.9985M19.9985 9.67057H20" stroke="#666E77" stroke-width="2.57139" stroke-linecap="round" stroke-linejoin="round"/>
</svg>
